<svg xmlns="http://www.w3.org/2000/svg" viewBox="0 0 760 460" width="760" height="460">
  <rect width="760" height="460" rx="12" fill="#0d1117"/>
  <text x="380" y="28" text-anchor="middle" font-family="monospace" font-size="14" font-weight="bold" fill="#f0f6fc">Perplexity by Quantization Level — Simulated Post-Training Quantization</text>
  <text x="380" y="46" text-anchor="middle" font-family="monospace" font-size="11" fill="#8b949e">google/gemma-4-E2B-it · WikiText-2 test set · log scale · lower is better</text>
  <rect x="92" y="348.6" width="638" height="21.4" fill="#e3b341" opacity="0.07"/>
  <text x="96" y="344.6" font-family="monospace" font-size="8" fill="#e3b341" opacity="0.75">▲ near-random zone  (vocab=262K, random=262,144)</text>
  <line x1="92" y1="358.3" x2="730" y2="358.3" stroke="#21262d" stroke-width="1" stroke-dasharray="4,3"/>
  <text x="86" y="361.8" text-anchor="end" font-family="monospace" font-size="9" fill="#8b949e">100K</text>
  <line x1="92" y1="335.0" x2="730" y2="335.0" stroke="#21262d" stroke-width="1" stroke-dasharray="4,3"/>
  <text x="86" y="338.5" text-anchor="end" font-family="monospace" font-size="9" fill="#8b949e">1M</text>
  <line x1="92" y1="288.3" x2="730" y2="288.3" stroke="#21262d" stroke-width="1" stroke-dasharray="4,3"/>
  <text x="86" y="291.8" text-anchor="end" font-family="monospace" font-size="9" fill="#8b949e">100M</text>
  <line x1="92" y1="241.7" x2="730" y2="241.7" stroke="#21262d" stroke-width="1" stroke-dasharray="4,3"/>
  <text x="86" y="245.2" text-anchor="end" font-family="monospace" font-size="9" fill="#8b949e">10B</text>
  <line x1="92" y1="195.0" x2="730" y2="195.0" stroke="#21262d" stroke-width="1" stroke-dasharray="4,3"/>
  <text x="86" y="198.5" text-anchor="end" font-family="monospace" font-size="9" fill="#8b949e">1T</text>
  <line x1="92" y1="148.3" x2="730" y2="148.3" stroke="#21262d" stroke-width="1" stroke-dasharray="4,3"/>
  <text x="86" y="151.8" text-anchor="end" font-family="monospace" font-size="9" fill="#8b949e">100T</text>
  <line x1="92" y1="101.7" x2="730" y2="101.7" stroke="#21262d" stroke-width="1" stroke-dasharray="4,3"/>
  <text x="86" y="105.2" text-anchor="end" font-family="monospace" font-size="9" fill="#8b949e">10Q</text>
  <line x1="92" y1="90" x2="92" y2="370" stroke="#30363d" stroke-width="1.5"/>
  <line x1="92" y1="370" x2="730" y2="370" stroke="#30363d" stroke-width="1.5"/>
  <defs><linearGradient id="g0" x1="0" y1="0" x2="0" y2="1"><stop offset="0%" stop-color="#34d399"/><stop offset="100%" stop-color="#059669"/></linearGradient></defs>
  <rect x="155.6" y="355.8" width="80" height="14.2" rx="5" fill="url(#g0)"/>
  <rect x="177.6" y="325.8" width="36" height="15" rx="2" fill="#0d1117"/>
  <text x="195.6" y="337.8" text-anchor="middle" font-family="monospace" font-size="11" font-weight="bold" fill="#34d399">128K</text>
  <text x="195.6" y="388.0" text-anchor="middle" font-family="monospace" font-size="13" font-weight="bold" fill="#34d399">BF16</text>
  <text x="195.6" y="403.0" text-anchor="middle" font-family="monospace" font-size="9" fill="#8b949e">baseline</text>
  <defs><linearGradient id="g1" x1="0" y1="0" x2="0" y2="1"><stop offset="0%" stop-color="#a78bfa"/><stop offset="100%" stop-color="#7c3aed"/></linearGradient></defs>
  <rect x="299.2" y="359.1" width="80" height="10.9" rx="5" fill="url(#g1)"/>
  <rect x="324.7" y="329.1" width="29" height="15" rx="2" fill="#0d1117"/>
  <text x="339.2" y="341.1" text-anchor="middle" font-family="monospace" font-size="11" font-weight="bold" fill="#a78bfa">92K</text>
  <text x="339.2" y="388.0" text-anchor="middle" font-family="monospace" font-size="13" font-weight="bold" fill="#a78bfa">INT8</text>
  <text x="339.2" y="403.0" text-anchor="middle" font-family="monospace" font-size="9" fill="#8b949e">✓ recommended</text>
  <defs><linearGradient id="g2" x1="0" y1="0" x2="0" y2="1"><stop offset="0%" stop-color="#f85149"/><stop offset="100%" stop-color="#dc2626"/></linearGradient></defs>
  <rect x="442.8" y="112.9" width="80" height="257.1" rx="5" fill="url(#g2)"/>
  <rect x="461.3" y="92.0" width="43" height="15" rx="2" fill="#0d1117"/>
  <text x="482.8" y="104.0" text-anchor="middle" font-family="monospace" font-size="11" font-weight="bold" fill="#f85149">3.31Q</text>
  <text x="482.8" y="388.0" text-anchor="middle" font-family="monospace" font-size="13" font-weight="bold" fill="#f85149">INT4</text>
  <text x="482.8" y="403.0" text-anchor="middle" font-family="monospace" font-size="9" fill="#8b949e">✗ catastrophic</text>
  <defs><linearGradient id="g3" x1="0" y1="0" x2="0" y2="1"><stop offset="0%" stop-color="#ffa198"/><stop offset="100%" stop-color="#991b1b"/></linearGradient></defs>
  <rect x="586.4" y="225.1" width="80" height="144.9" rx="5" fill="url(#g3)"/>
  <rect x="604.9" y="195.1" width="43" height="15" rx="2" fill="#0d1117"/>
  <text x="626.4" y="207.1" text-anchor="middle" font-family="monospace" font-size="11" font-weight="bold" fill="#ffa198">51.3B</text>
  <text x="626.4" y="388.0" text-anchor="middle" font-family="monospace" font-size="13" font-weight="bold" fill="#ffa198">1-bit</text>
  <text x="626.4" y="403.0" text-anchor="middle" font-family="monospace" font-size="9" fill="#8b949e">✗ catastrophic</text>
  <text transform="rotate(-90)" x="-230" y="16" text-anchor="middle" font-family="monospace" font-size="10" fill="#8b949e">Perplexity (log scale)</text>
  <text x="380" y="432" text-anchor="middle" font-family="monospace" font-size="8" fill="#484f58">Simulated PTQ: weights dequantized to BF16 before inference — no actual runtime memory or speed gains.</text>
  <text x="380" y="446" text-anchor="middle" font-family="monospace" font-size="8" fill="#484f58">High BF16 baseline (~128K) is expected for a 262K-vocab instruction-tuned model on raw text. Relative ordering is the signal.</text>
</svg>