<svg xmlns="http://www.w3.org/2000/svg" viewBox="0 0 700 420" width="700" height="420">
  <rect width="700" height="420" rx="12" fill="#0d1117"/>
  <text x="350" y="36" text-anchor="middle" font-family="monospace" font-size="15" font-weight="bold" fill="#f0f6fc">Perplexity by Quantization Level</text>
  <text x="350" y="54" text-anchor="middle" font-family="monospace" font-size="11" fill="#8b949e">Model: google/gemma-4-E2B-it · WikiText-2 · Log scale (lower is better)</text>
  <line x1="80" y1="360.0" x2="640" y2="360.0" stroke="#21262d" stroke-width="1" stroke-dasharray="4,3"/><text x="72" y="364.0" text-anchor="end" font-family="monospace" font-size="9" fill="#8b949e">10K</text><line x1="80" y1="313.3" x2="640" y2="313.3" stroke="#21262d" stroke-width="1" stroke-dasharray="4,3"/><text x="72" y="317.3" text-anchor="end" font-family="monospace" font-size="9" fill="#8b949e">1M</text><line x1="80" y1="266.7" x2="640" y2="266.7" stroke="#21262d" stroke-width="1" stroke-dasharray="4,3"/><text x="72" y="270.7" text-anchor="end" font-family="monospace" font-size="9" fill="#8b949e">100M</text><line x1="80" y1="220.0" x2="640" y2="220.0" stroke="#21262d" stroke-width="1" stroke-dasharray="4,3"/><text x="72" y="224.0" text-anchor="end" font-family="monospace" font-size="9" fill="#8b949e">100B</text><line x1="80" y1="173.3" x2="640" y2="173.3" stroke="#21262d" stroke-width="1" stroke-dasharray="4,3"/><text x="72" y="177.3" text-anchor="end" font-family="monospace" font-size="9" fill="#8b949e">1T</text><line x1="80" y1="126.7" x2="640" y2="126.7" stroke="#21262d" stroke-width="1" stroke-dasharray="4,3"/><text x="72" y="130.7" text-anchor="end" font-family="monospace" font-size="9" fill="#8b949e">100T</text><line x1="80" y1="80.0" x2="640" y2="80.0" stroke="#21262d" stroke-width="1" stroke-dasharray="4,3"/><text x="72" y="84.0" text-anchor="end" font-family="monospace" font-size="9" fill="#8b949e">1Q</text>
  <line x1="80" y1="70" x2="80" y2="370" stroke="#30363d" stroke-width="1"/>
  <line x1="80" y1="360" x2="640" y2="360" stroke="#30363d" stroke-width="1"/>
  
  <defs><linearGradient id="g0" x1="0" y1="0" x2="0" y2="1">
    <stop offset="0%" stop-color="#34d399"/><stop offset="100%" stop-color="#059669"/>
  </linearGradient></defs>
  <rect x="100" y="334.2" width="80" height="25.8" rx="4" fill="url(#g0)"/>
  <text x="140" y="326.2" text-anchor="middle" font-family="monospace" font-size="10" font-weight="bold" fill="#34d399">127,575</text>
  <text x="140" y="382" text-anchor="middle" font-family="monospace" font-size="12" font-weight="bold" fill="#34d399">FP16</text>
  <text x="140" y="396" text-anchor="middle" font-family="monospace" font-size="9" fill="#8b949e">baseline</text>
  <defs><linearGradient id="g1" x1="0" y1="0" x2="0" y2="1">
    <stop offset="0%" stop-color="#8b5cf6"/><stop offset="100%" stop-color="#6f42c1"/>
  </linearGradient></defs>
  <rect x="240" y="338.1" width="80" height="21.9" rx="4" fill="url(#g1)"/>
  <text x="280" y="330.1" text-anchor="middle" font-family="monospace" font-size="10" font-weight="bold" fill="#8b5cf6">87,205</text>
  <text x="280" y="382" text-anchor="middle" font-family="monospace" font-size="12" font-weight="bold" fill="#8b5cf6">INT8</text>
  <text x="280" y="396" text-anchor="middle" font-family="monospace" font-size="9" fill="#8b949e">✓ best</text>
  <defs><linearGradient id="g2" x1="0" y1="0" x2="0" y2="1">
    <stop offset="0%" stop-color="#f87171"/><stop offset="100%" stop-color="#dc2626"/>
  </linearGradient></defs>
  <rect x="380" y="90.4" width="80" height="269.6" rx="4" fill="url(#g2)"/>
  <text x="420" y="82.4" text-anchor="middle" font-family="monospace" font-size="10" font-weight="bold" fill="#f87171">3.6Q</text>
  <text x="420" y="94.4" text-anchor="middle" font-family="monospace" font-size="9" fill="#f87171">⚠ FAIL</text>
  <text x="420" y="382" text-anchor="middle" font-family="monospace" font-size="12" font-weight="bold" fill="#f87171">INT4</text>
  <text x="420" y="396" text-anchor="middle" font-family="monospace" font-size="9" fill="#8b949e">catastrophic</text>
  <defs><linearGradient id="g3" x1="0" y1="0" x2="0" y2="1">
    <stop offset="0%" stop-color="#fca5a5"/><stop offset="100%" stop-color="#991b1b"/>
  </linearGradient></defs>
  <rect x="520" y="201.0" width="80" height="159.0" rx="4" fill="url(#g3)"/>
  <text x="560" y="193.0" text-anchor="middle" font-family="monospace" font-size="10" font-weight="bold" fill="#fca5a5">65.3B</text>
  <text x="560" y="205.0" text-anchor="middle" font-family="monospace" font-size="9" fill="#fca5a5">⚠ FAIL</text>
  <text x="560" y="382" text-anchor="middle" font-family="monospace" font-size="12" font-weight="bold" fill="#fca5a5">1-bit</text>
  <text x="560" y="396" text-anchor="middle" font-family="monospace" font-size="9" fill="#8b949e">catastrophic</text>
  <text x="350" y="415" text-anchor="middle" font-family="monospace" font-size="9" fill="#484f58">Built with NEO — heyneo.so</text>
</svg>