<svg xmlns="http://www.w3.org/2000/svg" viewBox="0 0 700 320" width="700" height="320">
  <rect width="700" height="320" rx="12" fill="#0d1117"/>
  <text x="350" y="28" text-anchor="middle" font-family="monospace" font-size="14" font-weight="bold" fill="#f0f6fc">Layer Sensitivity Heatmap — 1-bit Quantization</text>
  <text x="350" y="46" text-anchor="middle" font-family="monospace" font-size="10" fill="#8b949e">google/gemma-4-E2B-it · 566 linear layers · cosine similarity to original FP16</text>
  <rect x="60.0" y="60" width="1.10" height="210" fill="#79c450"/><rect x="61.1" y="60" width="1.10" height="210" fill="#82bb50"/><rect x="62.2" y="60" width="1.10" height="210" fill="#78c550"/><rect x="63.3" y="60" width="1.10" height="210" fill="#7ebf50"/><rect x="64.4" y="60" width="1.10" height="210" fill="#7cc150"/><rect x="65.5" y="60" width="1.10" height="210" fill="#7ac350"/><rect x="66.6" y="60" width="1.10" height="210" fill="#7ebf50"/><rect x="67.7" y="60" width="1.10" height="210" fill="#82bb50"/><rect x="68.8" y="60" width="1.10" height="210" fill="#92ab50"/><rect x="69.9" y="60" width="1.10" height="210" fill="#82bb50"/><rect x="71.0" y="60" width="1.10" height="210" fill="#84b950"/><rect x="72.0" y="60" width="1.10" height="210" fill="#7bc250"/><rect x="73.1" y="60" width="1.10" height="210" fill="#7bc250"/><rect x="74.2" y="60" width="1.10" height="210" fill="#7bc250"/><rect x="75.3" y="60" width="1.10" height="210" fill="#7ac350"/><rect x="76.4" y="60" width="1.10" height="210" fill="#7cc150"/><rect x="77.5" y="60" width="1.10" height="210" fill="#88b550"/><rect x="78.6" y="60" width="1.10" height="210" fill="#83ba50"/><rect x="79.7" y="60" width="1.10" height="210" fill="#79c450"/><rect x="80.8" y="60" width="1.10" height="210" fill="#7cc150"/><rect x="81.9" y="60" width="1.10" height="210" fill="#80bd50"/><rect x="83.0" y="60" width="1.10" height="210" fill="#7cc150"/><rect x="84.1" y="60" width="1.10" height="210" fill="#79c450"/><rect x="85.2" y="60" width="1.10" height="210" fill="#78c550"/><rect x="86.3" y="60" width="1.10" height="210" fill="#81bc50"/><rect x="87.4" y="60" width="1.10" height="210" fill="#98a550"/><rect x="88.5" y="60" width="1.10" height="210" fill="#76c750"/><rect x="89.6" y="60" width="1.10" height="210" fill="#8cb150"/><rect x="90.7" y="60" width="1.10" height="210" fill="#89b450"/><rect x="91.8" y="60" width="1.10" height="210" fill="#7ac350"/><rect x="92.9" y="60" width="1.10" height="210" fill="#83ba50"/><rect x="94.0" y="60" width="1.10" height="210" fill="#7dc050"/><rect x="95.1" y="60" width="1.10" height="210" fill="#7cc150"/><rect x="96.1" y="60" width="1.10" height="210" fill="#83ba50"/><rect x="97.2" y="60" width="1.10" height="210" fill="#8cb150"/><rect x="98.3" y="60" width="1.10" height="210" fill="#a89550"/><rect x="99.4" y="60" width="1.10" height="210" fill="#8fae50"/><rect x="100.5" y="60" width="1.10" height="210" fill="#85b850"/><rect x="101.6" y="60" width="1.10" height="210" fill="#80bd50"/><rect x="102.7" y="60" width="1.10" height="210" fill="#83ba50"/><rect x="103.8" y="60" width="1.10" height="210" fill="#80bd50"/><rect x="104.9" y="60" width="1.10" height="210" fill="#7dc050"/><rect x="106.0" y="60" width="1.10" height="210" fill="#81bc50"/><rect x="107.1" y="60" width="1.10" height="210" fill="#9aa350"/><rect x="108.2" y="60" width="1.10" height="210" fill="#8fae50"/><rect x="109.3" y="60" width="1.10" height="210" fill="#85b850"/><rect x="110.4" y="60" width="1.10" height="210" fill="#89b450"/><rect x="111.5" y="60" width="1.10" height="210" fill="#88b550"/><rect x="112.6" y="60" width="1.10" height="210" fill="#84b950"/><rect x="113.7" y="60" width="1.10" height="210" fill="#7ebf50"/><rect x="114.8" y="60" width="1.10" height="210" fill="#7cc150"/><rect x="115.9" y="60" width="1.10" height="210" fill="#7dc050"/><rect x="117.0" y="60" width="1.10" height="210" fill="#a89550"/><rect x="118.1" y="60" width="1.10" height="210" fill="#9ba250"/><rect x="119.2" y="60" width="1.10" height="210" fill="#7dc050"/><rect x="120.2" y="60" width="1.10" height="210" fill="#83ba50"/><rect x="121.3" y="60" width="1.10" height="210" fill="#77c650"/><rect x="122.4" y="60" width="1.10" height="210" fill="#7dc050"/><rect x="123.5" y="60" width="1.10" height="210" fill="#7dc050"/><rect x="124.6" y="60" width="1.10" height="210" fill="#79c450"/><rect x="125.7" y="60" width="1.10" height="210" fill="#7bc250"/><rect x="126.8" y="60" width="1.10" height="210" fill="#b78650"/><rect x="127.9" y="60" width="1.10" height="210" fill="#af8e50"/><rect x="129.0" y="60" width="1.10" height="210" fill="#8cb150"/><rect x="130.1" y="60" width="1.10" height="210" fill="#88b550"/><rect x="131.2" y="60" width="1.10" height="210" fill="#7dc050"/><rect x="132.3" y="60" width="1.10" height="210" fill="#7ebf50"/><rect x="133.4" y="60" width="1.10" height="210" fill="#82bb50"/><rect x="134.5" y="60" width="1.10" height="210" fill="#79c450"/><rect x="135.6" y="60" width="1.10" height="210" fill="#7dc050"/><rect x="136.7" y="60" width="1.10" height="210" fill="#c57850"/><rect x="137.8" y="60" width="1.10" height="210" fill="#9da050"/><rect x="138.9" y="60" width="1.10" height="210" fill="#87b650"/><rect x="140.0" y="60" width="1.10" height="210" fill="#88b550"/><rect x="141.1" y="60" width="1.10" height="210" fill="#90ad50"/><rect x="142.2" y="60" width="1.10" height="210" fill="#84b950"/><rect x="143.3" y="60" width="1.10" height="210" fill="#89b450"/><rect x="144.3" y="60" width="1.10" height="210" fill="#7cc150"/><rect x="145.4" y="60" width="1.10" height="210" fill="#7fbe50"/><rect x="146.5" y="60" width="1.10" height="210" fill="#b38a50"/><rect x="147.6" y="60" width="1.10" height="210" fill="#9e9f50"/><rect x="148.7" y="60" width="1.10" height="210" fill="#89b450"/><rect x="149.8" y="60" width="1.10" height="210" fill="#87b650"/><rect x="150.9" y="60" width="1.10" height="210" fill="#7dc050"/><rect x="152.0" y="60" width="1.10" height="210" fill="#86b750"/><rect x="153.1" y="60" width="1.10" height="210" fill="#8cb150"/><rect x="154.2" y="60" width="1.10" height="210" fill="#7cc150"/><rect x="155.3" y="60" width="1.10" height="210" fill="#7dc050"/><rect x="156.4" y="60" width="1.10" height="210" fill="#f44950"/><rect x="157.5" y="60" width="1.10" height="210" fill="#a19c50"/><rect x="158.6" y="60" width="1.10" height="210" fill="#94a950"/><rect x="159.7" y="60" width="1.10" height="210" fill="#8fae50"/><rect x="160.8" y="60" width="1.10" height="210" fill="#7ebf50"/><rect x="161.9" y="60" width="1.10" height="210" fill="#82bb50"/><rect x="163.0" y="60" width="1.10" height="210" fill="#8eaf50"/><rect x="164.1" y="60" width="1.10" height="210" fill="#7bc250"/><rect x="165.2" y="60" width="1.10" height="210" fill="#81bc50"/><rect x="166.3" y="60" width="1.10" height="210" fill="#e25b50"/><rect x="167.3" y="60" width="1.10" height="210" fill="#98a550"/><rect x="168.4" y="60" width="1.10" height="210" fill="#a29b50"/><rect x="169.5" y="60" width="1.10" height="210" fill="#8eaf50"/><rect x="170.6" y="60" width="1.10" height="210" fill="#81bc50"/><rect x="171.7" y="60" width="1.10" height="210" fill="#90ad50"/><rect x="172.8" y="60" width="1.10" height="210" fill="#91ac50"/><rect x="173.9" y="60" width="1.10" height="210" fill="#80bd50"/><rect x="175.0" y="60" width="1.10" height="210" fill="#82bb50"/><rect x="176.1" y="60" width="1.10" height="210" fill="#c47950"/><rect x="177.2" y="60" width="1.10" height="210" fill="#a59850"/><rect x="178.3" y="60" width="1.10" height="210" fill="#9aa350"/><rect x="179.4" y="60" width="1.10" height="210" fill="#94a950"/><rect x="180.5" y="60" width="1.10" height="210" fill="#85b850"/><rect x="181.6" y="60" width="1.10" height="210" fill="#84b950"/><rect x="182.7" y="60" width="1.10" height="210" fill="#98a550"/><rect x="183.8" y="60" width="1.10" height="210" fill="#81bc50"/><rect x="184.9" y="60" width="1.10" height="210" fill="#89b450"/><rect x="186.0" y="60" width="1.10" height="210" fill="#b68750"/><rect x="187.1" y="60" width="1.10" height="210" fill="#c97450"/><rect x="188.2" y="60" width="1.10" height="210" fill="#88b550"/><rect x="189.3" y="60" width="1.10" height="210" fill="#99a450"/><rect x="190.4" y="60" width="1.10" height="210" fill="#b48950"/><rect x="191.4" y="60" width="1.10" height="210" fill="#9aa350"/><rect x="192.5" y="60" width="1.10" height="210" fill="#9aa350"/><rect x="193.6" y="60" width="1.10" height="210" fill="#8bb250"/><rect x="194.7" y="60" width="1.10" height="210" fill="#8fae50"/><rect x="195.8" y="60" width="1.10" height="210" fill="#b48950"/><rect x="196.9" y="60" width="1.10" height="210" fill="#ce6f50"/><rect x="198.0" y="60" width="1.10" height="210" fill="#8db050"/><rect x="199.1" y="60" width="1.10" height="210" fill="#99a450"/><rect x="200.2" y="60" width="1.10" height="210" fill="#ac9150"/><rect x="201.3" y="60" width="1.10" height="210" fill="#83ba50"/><rect x="202.4" y="60" width="1.10" height="210" fill="#8db050"/><rect x="203.5" y="60" width="1.10" height="210" fill="#7cc150"/><rect x="204.6" y="60" width="1.10" height="210" fill="#7fbe50"/><rect x="205.7" y="60" width="1.10" height="210" fill="#a59850"/><rect x="206.8" y="60" width="1.10" height="210" fill="#88b550"/><rect x="207.9" y="60" width="1.10" height="210" fill="#64d950"/><rect x="209.0" y="60" width="1.10" height="210" fill="#94a950"/><rect x="210.1" y="60" width="1.10" height="210" fill="#64d950"/><rect x="211.2" y="60" width="1.10" height="210" fill="#7fbe50"/><rect x="212.3" y="60" width="1.10" height="210" fill="#89b450"/><rect x="213.4" y="60" width="1.10" height="210" fill="#7bc250"/><rect x="214.5" y="60" width="1.10" height="210" fill="#7fbe50"/><rect x="215.5" y="60" width="1.10" height="210" fill="#a59850"/><rect x="216.6" y="60" width="1.10" height="210" fill="#ee4f50"/><rect x="217.7" y="60" width="1.10" height="210" fill="#64d950"/><rect x="218.8" y="60" width="1.10" height="210" fill="#90ad50"/><rect x="219.9" y="60" width="1.10" height="210" fill="#64d950"/><rect x="221.0" y="60" width="1.10" height="210" fill="#7cc150"/><rect x="222.1" y="60" width="1.10" height="210" fill="#82bb50"/><rect x="223.2" y="60" width="1.10" height="210" fill="#77c650"/><rect x="224.3" y="60" width="1.10" height="210" fill="#7ac350"/><rect x="225.4" y="60" width="1.10" height="210" fill="#ca7350"/><rect x="226.5" y="60" width="1.10" height="210" fill="#c37a50"/><rect x="227.6" y="60" width="1.10" height="210" fill="#64d950"/><rect x="228.7" y="60" width="1.10" height="210" fill="#95a850"/><rect x="229.8" y="60" width="1.10" height="210" fill="#64d950"/><rect x="230.9" y="60" width="1.10" height="210" fill="#7ac350"/><rect x="232.0" y="60" width="1.10" height="210" fill="#7ebf50"/><rect x="233.1" y="60" width="1.10" height="210" fill="#75c850"/><rect x="234.2" y="60" width="1.10" height="210" fill="#79c450"/><rect x="235.3" y="60" width="1.10" height="210" fill="#cb7250"/><rect x="236.4" y="60" width="1.10" height="210" fill="#97a650"/><rect x="237.5" y="60" width="1.10" height="210" fill="#64d950"/><rect x="238.6" y="60" width="1.10" height="210" fill="#9aa350"/><rect x="239.6" y="60" width="1.10" height="210" fill="#64d950"/><rect x="240.7" y="60" width="1.10" height="210" fill="#7fbe50"/><rect x="241.8" y="60" width="1.10" height="210" fill="#82bb50"/><rect x="242.9" y="60" width="1.10" height="210" fill="#77c650"/><rect x="244.0" y="60" width="1.10" height="210" fill="#7bc250"/><rect x="245.1" y="60" width="1.10" height="210" fill="#d96450"/><rect x="246.2" y="60" width="1.10" height="210" fill="#81bc50"/><rect x="247.3" y="60" width="1.10" height="210" fill="#64d950"/><rect x="248.4" y="60" width="1.10" height="210" fill="#8db050"/><rect x="249.5" y="60" width="1.10" height="210" fill="#64d950"/><rect x="250.6" y="60" width="1.10" height="210" fill="#80bd50"/><rect x="251.7" y="60" width="1.10" height="210" fill="#8ab350"/><rect x="252.8" y="60" width="1.10" height="210" fill="#7ac350"/><rect x="253.9" y="60" width="1.10" height="210" fill="#7ac350"/><rect x="255.0" y="60" width="1.10" height="210" fill="#fe3f50"/><rect x="256.1" y="60" width="1.10" height="210" fill="#84b950"/><rect x="257.2" y="60" width="1.10" height="210" fill="#64d950"/><rect x="258.3" y="60" width="1.10" height="210" fill="#a09d50"/><rect x="259.4" y="60" width="1.10" height="210" fill="#64d950"/><rect x="260.5" y="60" width="1.10" height="210" fill="#7cc150"/><rect x="261.6" y="60" width="1.10" height="210" fill="#8ab350"/><rect x="262.7" y="60" width="1.10" height="210" fill="#79c450"/><rect x="263.7" y="60" width="1.10" height="210" fill="#7bc250"/><rect x="264.8" y="60" width="1.10" height="210" fill="#f84550"/><rect x="265.9" y="60" width="1.10" height="210" fill="#8ab350"/><rect x="267.0" y="60" width="1.10" height="210" fill="#64d950"/><rect x="268.1" y="60" width="1.10" height="210" fill="#a59850"/><rect x="269.2" y="60" width="1.10" height="210" fill="#64d950"/><rect x="270.3" y="60" width="1.10" height="210" fill="#81bc50"/><rect x="271.4" y="60" width="1.10" height="210" fill="#87b650"/><rect x="272.5" y="60" width="1.10" height="210" fill="#76c750"/><rect x="273.6" y="60" width="1.10" height="210" fill="#78c550"/><rect x="274.7" y="60" width="1.10" height="210" fill="#ff3f50"/><rect x="275.8" y="60" width="1.10" height="210" fill="#95a850"/><rect x="276.9" y="60" width="1.10" height="210" fill="#64d950"/><rect x="278.0" y="60" width="1.10" height="210" fill="#98a550"/><rect x="279.1" y="60" width="1.10" height="210" fill="#64d950"/><rect x="280.2" y="60" width="1.10" height="210" fill="#7cc150"/><rect x="281.3" y="60" width="1.10" height="210" fill="#87b650"/><rect x="282.4" y="60" width="1.10" height="210" fill="#77c650"/><rect x="283.5" y="60" width="1.10" height="210" fill="#78c550"/><rect x="284.6" y="60" width="1.10" height="210" fill="#e65750"/><rect x="285.7" y="60" width="1.10" height="210" fill="#8ab350"/><rect x="286.7" y="60" width="1.10" height="210" fill="#64d950"/><rect x="287.8" y="60" width="1.10" height="210" fill="#99a450"/><rect x="288.9" y="60" width="1.10" height="210" fill="#64d950"/><rect x="290.0" y="60" width="1.10" height="210" fill="#7ebf50"/><rect x="291.1" y="60" width="1.10" height="210" fill="#89b450"/><rect x="292.2" y="60" width="1.10" height="210" fill="#7cc150"/><rect x="293.3" y="60" width="1.10" height="210" fill="#7fbe50"/><rect x="294.4" y="60" width="1.10" height="210" fill="#ca7350"/><rect x="295.5" y="60" width="1.10" height="210" fill="#86b750"/><rect x="296.6" y="60" width="1.10" height="210" fill="#64d950"/><rect x="297.7" y="60" width="1.10" height="210" fill="#89b450"/><rect x="298.8" y="60" width="1.10" height="210" fill="#64d950"/><rect x="299.9" y="60" width="1.10" height="210" fill="#81bc50"/><rect x="301.0" y="60" width="1.10" height="210" fill="#8cb150"/><rect x="302.1" y="60" width="1.10" height="210" fill="#80bd50"/><rect x="303.2" y="60" width="1.10" height="210" fill="#80bd50"/><rect x="304.3" y="60" width="1.10" height="210" fill="#84b950"/><rect x="305.4" y="60" width="1.10" height="210" fill="#8db050"/><rect x="306.5" y="60" width="1.10" height="210" fill="#64d950"/><rect x="307.6" y="60" width="1.10" height="210" fill="#99a450"/><rect x="308.7" y="60" width="1.10" height="210" fill="#64d950"/><rect x="309.8" y="60" width="1.10" height="210" fill="#84b950"/><rect x="310.8" y="60" width="1.10" height="210" fill="#84b950"/><rect x="311.9" y="60" width="1.10" height="210" fill="#78c550"/><rect x="313.0" y="60" width="1.10" height="210" fill="#7bc250"/><rect x="314.1" y="60" width="1.10" height="210" fill="#7ac350"/><rect x="315.2" y="60" width="1.10" height="210" fill="#87b650"/><rect x="316.3" y="60" width="1.10" height="210" fill="#64d950"/><rect x="317.4" y="60" width="1.10" height="210" fill="#99a450"/><rect x="318.5" y="60" width="1.10" height="210" fill="#64d950"/><rect x="319.6" y="60" width="1.10" height="210" fill="#82bb50"/><rect x="320.7" y="60" width="1.10" height="210" fill="#7ebf50"/><rect x="321.8" y="60" width="1.10" height="210" fill="#76c750"/><rect x="322.9" y="60" width="1.10" height="210" fill="#79c450"/><rect x="324.0" y="60" width="1.10" height="210" fill="#7bc250"/><rect x="325.1" y="60" width="1.10" height="210" fill="#80bd50"/><rect x="326.2" y="60" width="1.10" height="210" fill="#64d950"/><rect x="327.3" y="60" width="1.10" height="210" fill="#95a850"/><rect x="328.4" y="60" width="1.10" height="210" fill="#64d950"/><rect x="329.5" y="60" width="1.10" height="210" fill="#87b650"/><rect x="330.6" y="60" width="1.10" height="210" fill="#7ebf50"/><rect x="331.7" y="60" width="1.10" height="210" fill="#76c750"/><rect x="332.8" y="60" width="1.10" height="210" fill="#77c650"/><rect x="333.9" y="60" width="1.10" height="210" fill="#78c550"/><rect x="334.9" y="60" width="1.10" height="210" fill="#7fbe50"/><rect x="336.0" y="60" width="1.10" height="210" fill="#64d950"/><rect x="337.1" y="60" width="1.10" height="210" fill="#97a650"/><rect x="338.2" y="60" width="1.10" height="210" fill="#64d950"/><rect x="339.3" y="60" width="1.10" height="210" fill="#88b550"/><rect x="340.4" y="60" width="1.10" height="210" fill="#7fbe50"/><rect x="341.5" y="60" width="1.10" height="210" fill="#76c750"/><rect x="342.6" y="60" width="1.10" height="210" fill="#76c750"/><rect x="343.7" y="60" width="1.10" height="210" fill="#78c550"/><rect x="344.8" y="60" width="1.10" height="210" fill="#7fbe50"/><rect x="345.9" y="60" width="1.10" height="210" fill="#64d950"/><rect x="347.0" y="60" width="1.10" height="210" fill="#8bb250"/><rect x="348.1" y="60" width="1.10" height="210" fill="#64d950"/><rect x="349.2" y="60" width="1.10" height="210" fill="#81bc50"/><rect x="350.3" y="60" width="1.10" height="210" fill="#79c450"/><rect x="351.4" y="60" width="1.10" height="210" fill="#74c950"/><rect x="352.5" y="60" width="1.10" height="210" fill="#75c850"/><rect x="353.6" y="60" width="1.10" height="210" fill="#79c450"/><rect x="354.7" y="60" width="1.10" height="210" fill="#95a850"/><rect x="355.8" y="60" width="1.10" height="210" fill="#64d950"/><rect x="356.9" y="60" width="1.10" height="210" fill="#90ad50"/><rect x="358.0" y="60" width="1.10" height="210" fill="#64d950"/><rect x="359.0" y="60" width="1.10" height="210" fill="#7bc250"/><rect x="360.1" y="60" width="1.10" height="210" fill="#78c550"/><rect x="361.2" y="60" width="1.10" height="210" fill="#73ca50"/><rect x="362.3" y="60" width="1.10" height="210" fill="#74c950"/><rect x="363.4" y="60" width="1.10" height="210" fill="#7ebf50"/><rect x="364.5" y="60" width="1.10" height="210" fill="#b48950"/><rect x="365.6" y="60" width="1.10" height="210" fill="#64d950"/><rect x="366.7" y="60" width="1.10" height="210" fill="#90ad50"/><rect x="367.8" y="60" width="1.10" height="210" fill="#64d950"/><rect x="368.9" y="60" width="1.10" height="210" fill="#80bd50"/><rect x="370.0" y="60" width="1.10" height="210" fill="#77c650"/><rect x="371.1" y="60" width="1.10" height="210" fill="#72cb50"/><rect x="372.2" y="60" width="1.10" height="210" fill="#74c950"/><rect x="373.3" y="60" width="1.10" height="210" fill="#7dc050"/><rect x="374.4" y="60" width="1.10" height="210" fill="#b18c50"/><rect x="375.5" y="60" width="1.10" height="210" fill="#64d950"/><rect x="376.6" y="60" width="1.10" height="210" fill="#91ac50"/><rect x="377.7" y="60" width="1.10" height="210" fill="#64d950"/><rect x="378.8" y="60" width="1.10" height="210" fill="#7dc050"/><rect x="379.9" y="60" width="1.10" height="210" fill="#7bc250"/><rect x="381.0" y="60" width="1.10" height="210" fill="#73ca50"/><rect x="382.0" y="60" width="1.10" height="210" fill="#74c950"/><rect x="383.1" y="60" width="1.10" height="210" fill="#80bd50"/><rect x="384.2" y="60" width="1.10" height="210" fill="#be7f50"/><rect x="385.3" y="60" width="1.10" height="210" fill="#64d950"/><rect x="386.4" y="60" width="1.10" height="210" fill="#90ad50"/><rect x="387.5" y="60" width="1.10" height="210" fill="#64d950"/><rect x="388.6" y="60" width="1.10" height="210" fill="#7dc050"/><rect x="389.7" y="60" width="1.10" height="210" fill="#84b950"/><rect x="390.8" y="60" width="1.10" height="210" fill="#74c950"/><rect x="391.9" y="60" width="1.10" height="210" fill="#78c550"/><rect x="393.0" y="60" width="1.10" height="210" fill="#8bb250"/><rect x="394.1" y="60" width="1.10" height="210" fill="#8ab350"/><rect x="395.2" y="60" width="1.10" height="210" fill="#64d950"/><rect x="396.3" y="60" width="1.10" height="210" fill="#85b850"/><rect x="397.4" y="60" width="1.10" height="210" fill="#64d950"/><rect x="398.5" y="60" width="1.10" height="210" fill="#83ba50"/><rect x="399.6" y="60" width="1.10" height="210" fill="#85b850"/><rect x="400.7" y="60" width="1.10" height="210" fill="#77c650"/><rect x="401.8" y="60" width="1.10" height="210" fill="#7cc150"/><rect x="402.9" y="60" width="1.10" height="210" fill="#bb8250"/><rect x="404.0" y="60" width="1.10" height="210" fill="#93aa50"/><rect x="405.1" y="60" width="1.10" height="210" fill="#80bd50"/><rect x="406.1" y="60" width="1.10" height="210" fill="#b58850"/><rect x="407.2" y="60" width="1.10" height="210" fill="#99a450"/><rect x="408.3" y="60" width="1.10" height="210" fill="#8eaf50"/><rect x="409.4" y="60" width="1.10" height="210" fill="#9da050"/><rect x="410.5" y="60" width="1.10" height="210" fill="#e25b50"/><rect x="411.6" y="60" width="1.10" height="210" fill="#88b550"/><rect x="412.7" y="60" width="1.10" height="210" fill="#87b650"/><rect x="413.8" y="60" width="1.10" height="210" fill="#95a850"/><rect x="414.9" y="60" width="1.10" height="210" fill="#84b950"/><rect x="416.0" y="60" width="1.10" height="210" fill="#85b850"/><rect x="417.1" y="60" width="1.10" height="210" fill="#91ac50"/><rect x="418.2" y="60" width="1.10" height="210" fill="#a59850"/><rect x="419.3" y="60" width="1.10" height="210" fill="#7fbe50"/><rect x="420.4" y="60" width="1.10" height="210" fill="#7fbe50"/><rect x="421.5" y="60" width="1.10" height="210" fill="#90ad50"/><rect x="422.6" y="60" width="1.10" height="210" fill="#7fbe50"/><rect x="423.7" y="60" width="1.10" height="210" fill="#86b750"/><rect x="424.8" y="60" width="1.10" height="210" fill="#85b850"/><rect x="425.9" y="60" width="1.10" height="210" fill="#be7f50"/><rect x="427.0" y="60" width="1.10" height="210" fill="#7fbe50"/><rect x="428.1" y="60" width="1.10" height="210" fill="#7ebf50"/><rect x="429.2" y="60" width="1.10" height="210" fill="#8eaf50"/><rect x="430.2" y="60" width="1.10" height="210" fill="#7fbe50"/><rect x="431.3" y="60" width="1.10" height="210" fill="#80bd50"/><rect x="432.4" y="60" width="1.10" height="210" fill="#83ba50"/><rect x="433.5" y="60" width="1.10" height="210" fill="#8db050"/><rect x="434.6" y="60" width="1.10" height="210" fill="#7ebf50"/><rect x="435.7" y="60" width="1.10" height="210" fill="#7dc050"/><rect x="436.8" y="60" width="1.10" height="210" fill="#89b450"/><rect x="437.9" y="60" width="1.10" height="210" fill="#7bc250"/><rect x="439.0" y="60" width="1.10" height="210" fill="#82bb50"/><rect x="440.1" y="60" width="1.10" height="210" fill="#7ebf50"/><rect x="441.2" y="60" width="1.10" height="210" fill="#94a950"/><rect x="442.3" y="60" width="1.10" height="210" fill="#7fbe50"/><rect x="443.4" y="60" width="1.10" height="210" fill="#7dc050"/><rect x="444.5" y="60" width="1.10" height="210" fill="#89b450"/><rect x="445.6" y="60" width="1.10" height="210" fill="#7cc150"/><rect x="446.7" y="60" width="1.10" height="210" fill="#7fbe50"/><rect x="447.8" y="60" width="1.10" height="210" fill="#81bc50"/><rect x="448.9" y="60" width="1.10" height="210" fill="#87b650"/><rect x="450.0" y="60" width="1.10" height="210" fill="#7ebf50"/><rect x="451.1" y="60" width="1.10" height="210" fill="#7dc050"/><rect x="452.2" y="60" width="1.10" height="210" fill="#7fbe50"/><rect x="453.3" y="60" width="1.10" height="210" fill="#78c550"/><rect x="454.3" y="60" width="1.10" height="210" fill="#80bd50"/><rect x="455.4" y="60" width="1.10" height="210" fill="#7dc050"/><rect x="456.5" y="60" width="1.10" height="210" fill="#89b450"/><rect x="457.6" y="60" width="1.10" height="210" fill="#7bc250"/><rect x="458.7" y="60" width="1.10" height="210" fill="#7ac350"/><rect x="459.8" y="60" width="1.10" height="210" fill="#81bc50"/><rect x="460.9" y="60" width="1.10" height="210" fill="#79c450"/><rect x="462.0" y="60" width="1.10" height="210" fill="#7dc050"/><rect x="463.1" y="60" width="1.10" height="210" fill="#7ac350"/><rect x="464.2" y="60" width="1.10" height="210" fill="#88b550"/><rect x="465.3" y="60" width="1.10" height="210" fill="#7bc250"/><rect x="466.4" y="60" width="1.10" height="210" fill="#7ac350"/><rect x="467.5" y="60" width="1.10" height="210" fill="#82bb50"/><rect x="468.6" y="60" width="1.10" height="210" fill="#7bc250"/><rect x="469.7" y="60" width="1.10" height="210" fill="#88b550"/><rect x="470.8" y="60" width="1.10" height="210" fill="#7cc150"/><rect x="471.9" y="60" width="1.10" height="210" fill="#8ab350"/><rect x="473.0" y="60" width="1.10" height="210" fill="#78c550"/><rect x="474.1" y="60" width="1.10" height="210" fill="#78c550"/><rect x="475.2" y="60" width="1.10" height="210" fill="#88b550"/><rect x="476.3" y="60" width="1.10" height="210" fill="#7ac350"/><rect x="477.3" y="60" width="1.10" height="210" fill="#8cb150"/><rect x="478.4" y="60" width="1.10" height="210" fill="#77c650"/><rect x="479.5" y="60" width="1.10" height="210" fill="#79c450"/><rect x="480.6" y="60" width="1.10" height="210" fill="#78c550"/><rect x="481.7" y="60" width="1.10" height="210" fill="#78c550"/><rect x="482.8" y="60" width="1.10" height="210" fill="#86b750"/><rect x="483.9" y="60" width="1.10" height="210" fill="#7bc250"/><rect x="485.0" y="60" width="1.10" height="210" fill="#8ab350"/><rect x="486.1" y="60" width="1.10" height="210" fill="#77c650"/><rect x="487.2" y="60" width="1.10" height="210" fill="#7dc050"/><rect x="488.3" y="60" width="1.10" height="210" fill="#78c550"/><rect x="489.4" y="60" width="1.10" height="210" fill="#77c650"/><rect x="490.5" y="60" width="1.10" height="210" fill="#81bc50"/><rect x="491.6" y="60" width="1.10" height="210" fill="#79c450"/><rect x="492.7" y="60" width="1.10" height="210" fill="#83ba50"/><rect x="493.8" y="60" width="1.10" height="210" fill="#7ac350"/><rect x="494.9" y="60" width="1.10" height="210" fill="#82bb50"/><rect x="496.0" y="60" width="1.10" height="210" fill="#75c850"/><rect x="497.1" y="60" width="1.10" height="210" fill="#75c850"/><rect x="498.2" y="60" width="1.10" height="210" fill="#82bb50"/><rect x="499.3" y="60" width="1.10" height="210" fill="#7ac350"/><rect x="500.4" y="60" width="1.10" height="210" fill="#83ba50"/><rect x="501.4" y="60" width="1.10" height="210" fill="#77c650"/><rect x="502.5" y="60" width="1.10" height="210" fill="#7fbe50"/><rect x="503.6" y="60" width="1.10" height="210" fill="#75c850"/><rect x="504.7" y="60" width="1.10" height="210" fill="#75c850"/><rect x="505.8" y="60" width="1.10" height="210" fill="#85b850"/><rect x="506.9" y="60" width="1.10" height="210" fill="#7cc150"/><rect x="508.0" y="60" width="1.10" height="210" fill="#8db050"/><rect x="509.1" y="60" width="1.10" height="210" fill="#77c650"/><rect x="510.2" y="60" width="1.10" height="210" fill="#83ba50"/><rect x="511.3" y="60" width="1.10" height="210" fill="#75c850"/><rect x="512.4" y="60" width="1.10" height="210" fill="#75c850"/><rect x="513.5" y="60" width="1.10" height="210" fill="#7cc150"/><rect x="514.6" y="60" width="1.10" height="210" fill="#80bd50"/><rect x="515.7" y="60" width="1.10" height="210" fill="#90ad50"/><rect x="516.8" y="60" width="1.10" height="210" fill="#88b550"/><rect x="517.9" y="60" width="1.10" height="210" fill="#85b850"/><rect x="519.0" y="60" width="1.10" height="210" fill="#75c850"/><rect x="520.1" y="60" width="1.10" height="210" fill="#75c850"/><rect x="521.2" y="60" width="1.10" height="210" fill="#78c550"/><rect x="522.3" y="60" width="1.10" height="210" fill="#84b950"/><rect x="523.4" y="60" width="1.10" height="210" fill="#9ba250"/><rect x="524.5" y="60" width="1.10" height="210" fill="#96a750"/><rect x="525.5" y="60" width="1.10" height="210" fill="#a39a50"/><rect x="526.6" y="60" width="1.10" height="210" fill="#74c950"/><rect x="527.7" y="60" width="1.10" height="210" fill="#75c850"/><rect x="528.8" y="60" width="1.10" height="210" fill="#86b750"/><rect x="529.9" y="60" width="1.10" height="210" fill="#81bc50"/><rect x="531.0" y="60" width="1.10" height="210" fill="#89b450"/><rect x="532.1" y="60" width="1.10" height="210" fill="#4cf150"/><rect x="533.2" y="60" width="1.10" height="210" fill="#44f950"/><rect x="534.3" y="60" width="1.10" height="210" fill="#4af350"/><rect x="535.4" y="60" width="1.10" height="210" fill="#45f850"/><rect x="536.5" y="60" width="1.10" height="210" fill="#4df050"/><rect x="537.6" y="60" width="1.10" height="210" fill="#4af350"/><rect x="538.7" y="60" width="1.10" height="210" fill="#49f450"/><rect x="539.8" y="60" width="1.10" height="210" fill="#44f950"/><rect x="540.9" y="60" width="1.10" height="210" fill="#81bc50"/><rect x="542.0" y="60" width="1.10" height="210" fill="#77c650"/><rect x="543.1" y="60" width="1.10" height="210" fill="#46f750"/><rect x="544.2" y="60" width="1.10" height="210" fill="#4bf250"/><rect x="545.3" y="60" width="1.10" height="210" fill="#44f950"/><rect x="546.4" y="60" width="1.10" height="210" fill="#4bf250"/><rect x="547.5" y="60" width="1.10" height="210" fill="#45f850"/><rect x="548.6" y="60" width="1.10" height="210" fill="#44f950"/><rect x="549.6" y="60" width="1.10" height="210" fill="#47f650"/><rect x="550.7" y="60" width="1.10" height="210" fill="#47f650"/><rect x="551.8" y="60" width="1.10" height="210" fill="#4af350"/><rect x="552.9" y="60" width="1.10" height="210" fill="#8bb250"/><rect x="554.0" y="60" width="1.10" height="210" fill="#76c750"/><rect x="555.1" y="60" width="1.10" height="210" fill="#41fc50"/><rect x="556.2" y="60" width="1.10" height="210" fill="#4bf250"/><rect x="557.3" y="60" width="1.10" height="210" fill="#45f850"/><rect x="558.4" y="60" width="1.10" height="210" fill="#4cf150"/><rect x="559.5" y="60" width="1.10" height="210" fill="#43fa50"/><rect x="560.6" y="60" width="1.10" height="210" fill="#43fa50"/><rect x="561.7" y="60" width="1.10" height="210" fill="#47f650"/><rect x="562.8" y="60" width="1.10" height="210" fill="#4af350"/><rect x="563.9" y="60" width="1.10" height="210" fill="#47f650"/><rect x="565.0" y="60" width="1.10" height="210" fill="#83ba50"/><rect x="566.1" y="60" width="1.10" height="210" fill="#6fce50"/><rect x="567.2" y="60" width="1.10" height="210" fill="#41fc50"/><rect x="568.3" y="60" width="1.10" height="210" fill="#4cf150"/><rect x="569.4" y="60" width="1.10" height="210" fill="#49f450"/><rect x="570.5" y="60" width="1.10" height="210" fill="#4cf150"/><rect x="571.6" y="60" width="1.10" height="210" fill="#46f750"/><rect x="572.7" y="60" width="1.10" height="210" fill="#44f950"/><rect x="573.7" y="60" width="1.10" height="210" fill="#48f550"/><rect x="574.8" y="60" width="1.10" height="210" fill="#4fee50"/><rect x="575.9" y="60" width="1.10" height="210" fill="#46f750"/><rect x="577.0" y="60" width="1.10" height="210" fill="#9ba250"/><rect x="578.1" y="60" width="1.10" height="210" fill="#70cd50"/><rect x="579.2" y="60" width="1.10" height="210" fill="#41fc50"/><rect x="580.3" y="60" width="1.10" height="210" fill="#4cf150"/><rect x="581.4" y="60" width="1.10" height="210" fill="#46f750"/><rect x="582.5" y="60" width="1.10" height="210" fill="#4bf250"/><rect x="583.6" y="60" width="1.10" height="210" fill="#41fc50"/><rect x="584.7" y="60" width="1.10" height="210" fill="#44f950"/><rect x="585.8" y="60" width="1.10" height="210" fill="#4bf250"/><rect x="586.9" y="60" width="1.10" height="210" fill="#43fa50"/><rect x="588.0" y="60" width="1.10" height="210" fill="#49f450"/><rect x="589.1" y="60" width="1.10" height="210" fill="#84b950"/><rect x="590.2" y="60" width="1.10" height="210" fill="#70cd50"/><rect x="591.3" y="60" width="1.10" height="210" fill="#40fd50"/><rect x="592.4" y="60" width="1.10" height="210" fill="#4cf150"/><rect x="593.5" y="60" width="1.10" height="210" fill="#4eef50"/><rect x="594.6" y="60" width="1.10" height="210" fill="#4af350"/><rect x="595.7" y="60" width="1.10" height="210" fill="#3fff50"/><rect x="596.7" y="60" width="1.10" height="210" fill="#46f750"/><rect x="597.8" y="60" width="1.10" height="210" fill="#46f750"/><rect x="598.9" y="60" width="1.10" height="210" fill="#42fb50"/><rect x="600.0" y="60" width="1.10" height="210" fill="#4af350"/><rect x="601.1" y="60" width="1.10" height="210" fill="#7ac350"/><rect x="602.2" y="60" width="1.10" height="210" fill="#72cb50"/><rect x="603.3" y="60" width="1.10" height="210" fill="#46f750"/><rect x="604.4" y="60" width="1.10" height="210" fill="#4af350"/><rect x="605.5" y="60" width="1.10" height="210" fill="#45f850"/><rect x="606.6" y="60" width="1.10" height="210" fill="#4bf250"/><rect x="607.7" y="60" width="1.10" height="210" fill="#44f950"/><rect x="608.8" y="60" width="1.10" height="210" fill="#43fa50"/><rect x="609.9" y="60" width="1.10" height="210" fill="#45f850"/><rect x="611.0" y="60" width="1.10" height="210" fill="#42fb50"/><rect x="612.1" y="60" width="1.10" height="210" fill="#48f550"/><rect x="613.2" y="60" width="1.10" height="210" fill="#89b450"/><rect x="614.3" y="60" width="1.10" height="210" fill="#76c750"/><rect x="615.4" y="60" width="1.10" height="210" fill="#3ffe50"/><rect x="616.5" y="60" width="1.10" height="210" fill="#4cf150"/><rect x="617.6" y="60" width="1.10" height="210" fill="#4bf250"/><rect x="618.7" y="60" width="1.10" height="210" fill="#4df050"/><rect x="619.8" y="60" width="1.10" height="210" fill="#44f950"/><rect x="620.8" y="60" width="1.10" height="210" fill="#43fa50"/><rect x="621.9" y="60" width="1.10" height="210" fill="#48f550"/><rect x="623.0" y="60" width="1.10" height="210" fill="#45f850"/><rect x="624.1" y="60" width="1.10" height="210" fill="#4eef50"/><rect x="625.2" y="60" width="1.10" height="210" fill="#ab9250"/><rect x="626.3" y="60" width="1.10" height="210" fill="#72cb50"/><rect x="627.4" y="60" width="1.10" height="210" fill="#40fd50"/><rect x="628.5" y="60" width="1.10" height="210" fill="#4cf150"/><rect x="629.6" y="60" width="1.10" height="210" fill="#46f750"/><rect x="630.7" y="60" width="1.10" height="210" fill="#4cf150"/><rect x="631.8" y="60" width="1.10" height="210" fill="#44f950"/><rect x="632.9" y="60" width="1.10" height="210" fill="#45f850"/><rect x="634.0" y="60" width="1.10" height="210" fill="#4cf150"/><rect x="635.1" y="60" width="1.10" height="210" fill="#43fa50"/><rect x="636.2" y="60" width="1.10" height="210" fill="#48f550"/><rect x="637.3" y="60" width="1.10" height="210" fill="#8cb150"/><rect x="638.4" y="60" width="1.10" height="210" fill="#6dd050"/><rect x="639.5" y="60" width="1.10" height="210" fill="#40fd50"/><rect x="640.6" y="60" width="1.10" height="210" fill="#4bf250"/><rect x="641.7" y="60" width="1.10" height="210" fill="#45f850"/><rect x="642.8" y="60" width="1.10" height="210" fill="#4bf250"/><rect x="643.9" y="60" width="1.10" height="210" fill="#47f650"/><rect x="644.9" y="60" width="1.10" height="210" fill="#44f950"/><rect x="646.0" y="60" width="1.10" height="210" fill="#49f450"/><rect x="647.1" y="60" width="1.10" height="210" fill="#44f950"/><rect x="648.2" y="60" width="1.10" height="210" fill="#53ea50"/><rect x="649.3" y="60" width="1.10" height="210" fill="#83ba50"/><rect x="650.4" y="60" width="1.10" height="210" fill="#6ecf50"/><rect x="651.5" y="60" width="1.10" height="210" fill="#41fc50"/><rect x="652.6" y="60" width="1.10" height="210" fill="#4cf150"/><rect x="653.7" y="60" width="1.10" height="210" fill="#46f750"/><rect x="654.8" y="60" width="1.10" height="210" fill="#4af350"/><rect x="655.9" y="60" width="1.10" height="210" fill="#44f950"/><rect x="657.0" y="60" width="1.10" height="210" fill="#44f950"/><rect x="658.1" y="60" width="1.10" height="210" fill="#4cf150"/><rect x="659.2" y="60" width="1.10" height="210" fill="#43fa50"/><rect x="660.3" y="60" width="1.10" height="210" fill="#4eef50"/><rect x="661.4" y="60" width="1.10" height="210" fill="#8ab350"/><rect x="662.5" y="60" width="1.10" height="210" fill="#72cb50"/><rect x="663.6" y="60" width="1.10" height="210" fill="#42fb50"/><rect x="664.7" y="60" width="1.10" height="210" fill="#4cf150"/><rect x="665.8" y="60" width="1.10" height="210" fill="#43fa50"/><rect x="666.9" y="60" width="1.10" height="210" fill="#4eef50"/><rect x="668.0" y="60" width="1.10" height="210" fill="#4af350"/><rect x="669.0" y="60" width="1.10" height="210" fill="#44f950"/><rect x="670.1" y="60" width="1.10" height="210" fill="#4bf250"/><rect x="671.2" y="60" width="1.10" height="210" fill="#44f950"/><rect x="672.3" y="60" width="1.10" height="210" fill="#4df050"/><rect x="673.4" y="60" width="1.10" height="210" fill="#86b750"/><rect x="674.5" y="60" width="1.10" height="210" fill="#73ca50"/><rect x="675.6" y="60" width="1.10" height="210" fill="#45f850"/><rect x="676.7" y="60" width="1.10" height="210" fill="#84b950"/><rect x="677.8" y="60" width="1.10" height="210" fill="#7cc150"/><rect x="678.9" y="60" width="1.10" height="210" fill="#77c650"/>
  <!-- Threshold line -->
  <line x1="60" y1="105.9" x2="680" y2="105.9" stroke="#f0883e" stroke-width="1.5" stroke-dasharray="6,3"/>
  <text x="675" y="101.9" text-anchor="end" font-family="monospace" font-size="9" fill="#f0883e">threshold 0.90</text>
  <!-- Y axis labels -->
  <text x="55" y="68" text-anchor="end" font-family="monospace" font-size="9" fill="#8b949e">0.967</text>
  <text x="55" y="169" text-anchor="end" font-family="monospace" font-size="9" fill="#8b949e">0.814</text>
  <text x="55" y="270" text-anchor="end" font-family="monospace" font-size="9" fill="#8b949e">0.661</text>
  <!-- X axis -->
  <text x="60" y="286" font-family="monospace" font-size="9" fill="#8b949e">layer 0</text>
  <text x="680" y="286" text-anchor="end" font-family="monospace" font-size="9" fill="#8b949e">layer 565</text>
  <!-- Stats -->
  <rect x="60" y="292" width="620" height="22" rx="4" fill="#161b22" stroke="#30363d" stroke-width="1"/>
  <text x="70" y="307" font-family="monospace" font-size="10" fill="#da3633">Sensitive: 418 (74%)</text>
  <text x="260" y="307" font-family="monospace" font-size="10" fill="#3fb950">Tolerant: 148 (26%)</text>
  <text x="440" y="307" font-family="monospace" font-size="10" fill="#8b949e">Mean cos: 0.873</text>
  <!-- Legend -->
  <rect x="590" y="68" width="12" height="12" fill="#3fbd50" rx="2"/>
  <text x="606" y="79" font-family="monospace" font-size="9" fill="#8b949e">tolerant</text>
  <rect x="590" y="84" width="12" height="12" fill="#cc2020" rx="2"/>
  <text x="606" y="95" font-family="monospace" font-size="9" fill="#8b949e">sensitive</text>
</svg>