<svg xmlns="http://www.w3.org/2000/svg" viewBox="0 0 700 280" width="700" height="280">
  <rect width="700" height="280" rx="12" fill="#0d1117"/>
  <text x="350" y="30" text-anchor="middle" font-family="monospace" font-size="14" font-weight="bold" fill="#f0f6fc">Memory &amp; Inference Speed — gemma-4-E2B-it</text>
  <!-- Memory section -->
  <text x="180" y="58" text-anchor="middle" font-family="monospace" font-size="11" fill="#8b949e">GPU Memory (GB loaded)</text>
  <line x1="30" y1="80" x2="30" y2="205" stroke="#30363d" stroke-width="1"/>
  <line x1="30" y1="200" x2="650" y2="200" stroke="#30363d" stroke-width="1"/>
  <rect x="40" y="150.8" width="50" height="49.2" rx="3" fill="#34d399" opacity="0.8"/><text x="65" y="145.8" text-anchor="middle" font-family="monospace" font-size="10" fill="#34d399">10.2GB</text><text x="65" y="218" text-anchor="middle" font-family="monospace" font-size="11" font-weight="bold" fill="#34d399">FP16</text><rect x="190" y="101.6" width="50" height="98.4" rx="3" fill="#8b5cf6" opacity="0.8"/><text x="215" y="96.6" text-anchor="middle" font-family="monospace" font-size="10" fill="#8b5cf6">20.5GB</text><text x="215" y="218" text-anchor="middle" font-family="monospace" font-size="11" font-weight="bold" fill="#8b5cf6">INT8</text><rect x="340" y="101.5" width="50" height="98.5" rx="3" fill="#f87171" opacity="0.8"/><text x="365" y="96.5" text-anchor="middle" font-family="monospace" font-size="10" fill="#f87171">20.5GB</text><text x="365" y="218" text-anchor="middle" font-family="monospace" font-size="11" font-weight="bold" fill="#f87171">INT4</text><rect x="490" y="101.5" width="50" height="98.5" rx="3" fill="#fca5a5" opacity="0.8"/><text x="515" y="96.5" text-anchor="middle" font-family="monospace" font-size="10" fill="#fca5a5">20.5GB</text><text x="515" y="218" text-anchor="middle" font-family="monospace" font-size="11" font-weight="bold" fill="#fca5a5">1-bit</text>
  <!-- Grid -->
  <line x1="30" y1="152" x2="650" y2="152" stroke="#21262d" stroke-width="1" stroke-dasharray="3,3"/>
  <text x="22" y="156" text-anchor="end" font-family="monospace" font-size="9" fill="#8b949e">12GB</text>
  <text x="22" y="204" text-anchor="end" font-family="monospace" font-size="9" fill="#8b949e">0</text>
  <!-- Speed table -->
  <rect x="30" y="230" width="640" height="40" rx="6" fill="#161b22" stroke="#30363d" stroke-width="1"/>
  <text x="60" y="248" font-family="monospace" font-size="10" fill="#8b949e">Inference (ms/sample)</text>
  <text x="220" y="248" font-family="monospace" font-size="11" font-weight="bold" fill="#34d399">67.6ms</text>
  <text x="330" y="248" font-family="monospace" font-size="11" font-weight="bold" fill="#8b5cf6">67.2ms</text>
  <text x="440" y="248" font-family="monospace" font-size="11" font-weight="bold" fill="#f87171">68.9ms</text>
  <text x="550" y="248" font-family="monospace" font-size="11" font-weight="bold" fill="#fca5a5">70.7ms</text>
  <text x="60" y="263" font-family="monospace" font-size="10" fill="#8b949e">Throughput (samples/s)</text>
  <text x="220" y="263" font-family="monospace" font-size="10" fill="#34d399">14.8</text>
  <text x="330" y="263" font-family="monospace" font-size="10" fill="#8b5cf6">14.9</text>
  <text x="440" y="263" font-family="monospace" font-size="10" fill="#f87171">14.5</text>
  <text x="550" y="263" font-family="monospace" font-size="10" fill="#fca5a5">14.1</text>
</svg>